<svg xmlns="http://www.w3.org/2000/svg" width="494.719" height="245.594" viewBox="0 0 494.719 245.594">
  <metadata><?xpacket begin="﻿" id="W5M0MpCehiHzreSzNTczkc9d"?>
<x:xmpmeta xmlns:x="adobe:ns:meta/" x:xmptk="Adobe XMP Core 5.6-c142 79.160924, 2017/07/13-01:06:39        ">
   <rdf:RDF xmlns:rdf="http://www.w3.org/1999/02/22-rdf-syntax-ns#">
      <rdf:Description rdf:about=""/>
   </rdf:RDF>
</x:xmpmeta>
                                                                                                    
                                                                                                    
                                                                                                    
                                                                                                    
                                                                                                    
                                                                                                    
                                                                                                    
                                                                                                    
                                                                                                    
                                                                                                    
                                                                                                    
                                                                                                    
                                                                                                    
                                                                                                    
                                                                                                    
                                                                                                    
                                                                                                    
                                                                                                    
                                                                                                    
                                                                                                    
                           
<?xpacket end="w"?></metadata>
<defs>
    <style>
      .cls-1 {
        fill: #fff;
        fill-rule: evenodd;
      }
    </style>
  </defs>
  <path id="APP" class="cls-1" d="M259.26,206.126V180H128.137v26.128h51.288V349.1h28.547V206.126H259.26Zm149.264-13.064Q391.832,180,353.124,180h-62.9V349.1h28.548V292.251h37.5l40.4,56.852h36.289l-44.272-61.448q36.527-10.887,36.53-52.74Q425.217,206.128,408.524,193.062Zm-54.191,73.3H318.771V205.884h36.288q22.981,0,31.934,6.169t8.951,22.741q0,16.573-8.709,24.072t-32.9,7.5h0Zm238.779,39.918L494.891,180H466.343V349.1h28.548V225.722l95.8,123.381h30.967V180H593.112V306.283ZM465.844,414.855l4.732,10.749H479.1l-20.823-47.258h-8.519L428.93,425.6h8.519l4.732-10.749h23.663Zm-20.418-7.37,8.586-19.471,8.587,19.471H445.426Zm83.5-29.139H512.7V425.6h7.978V411.745h8.384q10.41,0,15.448-3.989t5.037-12.575q0-8.586-4.936-12.711t-15.685-4.124h0Zm1.015,26.165h-9.263V385.58h8.113q6.491,0,9.533,2.029t3.042,6.929q0,4.9-2.4,7.437t-9.025,2.536h0Zm72.272-26.165H585.982V425.6h7.978V411.745h8.383q10.41,0,15.449-3.989t5.036-12.575q0-8.586-4.935-12.711t-15.685-4.124h0Zm1.014,26.165H593.96V385.58h8.113q6.49,0,9.532,2.029t3.043,6.929q0,4.9-2.4,7.437t-9.026,2.536h0Z" transform="translate(-128.125 -180)"/>
</svg>
